<?xml version="1.0" standalone="no"?>
<!DOCTYPE svg PUBLIC "-//W3C//DTD SVG 20010904//EN"
 "http://www.w3.org/TR/2001/REC-SVG-20010904/DTD/svg10.dtd">
<svg version="1.0" xmlns="http://www.w3.org/2000/svg"
 width="424.000000pt" height="424.000000pt" viewBox="0 0 424.000000 424.000000"
 preserveAspectRatio="xMidYMid meet">

<g transform="translate(0.000000,424.000000) scale(0.100000,-0.100000)"
fill="#2d507b" stroke="none">
<path d="M1880 4151 l0 -81 43 -21 c23 -12 43 -22 45 -24 1 -1 -8 -46 -21
-101 -27 -112 -18 -104 -151 -119 l-62 -6 -42 88 -43 88 38 32 37 32 -19 75
c-20 81 -26 86 -80 66 -18 -7 -25 -15 -21 -28 19 -66 19 -69 -15 -81 -38 -13
-42 -10 -59 42 -9 30 -16 37 -31 32 -64 -18 -60 -13 -53 -62 7 -49 -2 -63 -43
-63 -17 0 -25 9 -34 41 -12 38 -14 40 -43 35 -47 -10 -51 -20 -37 -78 24 -93
27 -98 63 -98 56 0 59 -7 56 -116 l-3 -99 -73 -38 c-85 -45 -76 -48 -158 59
l-57 74 17 38 17 38 -38 62 c-21 34 -43 64 -49 66 -6 2 -24 -6 -39 -18 l-29
-23 22 -36 c26 -40 22 -47 -44 -88 l-37 -22 -19 23 c-10 13 -22 30 -27 38 -7
12 -12 12 -39 -2 -18 -9 -32 -23 -32 -32 0 -8 19 -42 41 -76 41 -59 42 -60 79
-54 l39 6 43 -81 42 -80 19 25 c25 35 62 33 120 -5 44 -29 107 -94 107 -111 0
-4 -21 -19 -47 -32 -85 -43 -88 -47 -69 -84 9 -18 21 -32 27 -32 5 0 42 18 82
40 40 21 126 57 192 79 434 144 1022 112 1372 -74 47 -25 91 -45 97 -45 17 0
50 60 39 71 -5 5 -38 24 -73 43 l-63 34 57 60 c31 33 70 66 86 72 37 15 77 6
85 -20 3 -11 9 -20 13 -20 4 0 27 35 52 78 l45 77 41 -3 c40 -3 42 -2 82 61
23 35 42 68 42 73 0 5 -14 18 -32 28 -31 19 -32 19 -47 -1 -9 -11 -21 -29 -27
-39 -10 -17 -13 -16 -58 10 -26 15 -50 34 -53 41 -2 8 5 29 18 46 22 31 22 32
3 46 -50 38 -52 37 -94 -28 -45 -70 -47 -79 -24 -119 l17 -28 -73 -86 c-40
-47 -74 -86 -76 -86 -3 0 -35 15 -73 34 l-68 35 -6 98 c-8 110 -2 123 59 123
31 0 33 3 48 53 31 108 31 106 0 117 -40 16 -57 9 -66 -28 -10 -39 -30 -49
-65 -33 -25 12 -26 24 -7 75 5 12 -4 20 -30 31 -43 18 -51 15 -61 -22 -10 -42
-22 -52 -53 -44 -25 7 -27 11 -24 59 l3 51 -36 7 c-20 3 -38 4 -41 2 -2 -3
-14 -36 -25 -74 l-20 -69 36 -31 c19 -17 35 -35 35 -40 0 -5 -17 -46 -37 -91
-42 -94 -37 -92 -162 -69 l-65 11 -23 90 c-12 50 -23 95 -23 102 0 7 20 21 45
32 l46 20 -3 78 -3 78 -42 3 -43 3 0 -45 c0 -40 -3 -46 -25 -52 -40 -10 -54 1
-57 48 -3 43 -3 43 -45 46 l-43 3 0 -45 c0 -40 -3 -46 -25 -52 -40 -10 -54 1
-57 48 -3 43 -3 43 -45 46 l-43 3 0 -80z m266 -318 c24 -26 64 -136 64 -177 0
-20 -4 -21 -115 -20 -64 1 -118 3 -120 6 -6 6 24 118 42 153 37 72 84 86 129
38z m-492 -76 c37 -38 103 -145 94 -151 -3 -2 -177 -48 -218 -58 -12 -2 -16 9
-18 52 -5 75 5 129 28 168 29 47 63 43 114 -11z m988 12 c22 -29 37 -123 30
-184 l-4 -41 -112 30 c-61 16 -113 32 -116 34 -11 8 58 117 98 154 49 45 75
47 104 7z"/>
<path d="M1910 3460 c-104 -13 -256 -46 -348 -76 -129 -42 -222 -85 -222 -101
0 -21 29 -14 170 37 239 87 491 123 712 101 196 -19 366 -60 537 -131 61 -25
73 -27 78 -14 8 22 -2 29 -105 69 -107 41 -244 79 -364 101 -103 18 -358 26
-458 14z"/>
<path d="M842 3068 c-21 -21 -14 -63 14 -89 62 -57 59 9 64 -1169 l5 -1075 23
-51 c29 -64 102 -136 167 -165 45 -20 79 -24 325 -35 285 -13 358 -22 446 -55
57 -22 137 -86 159 -129 8 -15 24 -30 36 -33 22 -6 23 -5 109 88 40 44 129 87
212 105 32 6 185 17 340 24 245 11 289 15 329 33 80 36 144 104 180 193 12 29
15 216 19 1110 5 1180 1 1100 64 1159 29 28 34 62 10 85 -14 14 -141 16 -1253
16 -949 0 -1240 -3 -1249 -12z m2360 -84 c3 -3 -1 -26 -10 -52 -13 -39 -16
-121 -20 -503 l-3 -457 -58 -26 c-110 -49 -174 -61 -331 -60 -140 1 -253 18
-577 89 -20 5 -23 1 -23 -23 0 -50 17 -61 145 -88 66 -14 154 -32 195 -41 54
-12 129 -17 270 -17 205 -1 211 0 363 59 16 7 17 -23 17 -546 0 -618 2 -597
-71 -666 -61 -57 -87 -63 -357 -73 -136 -6 -278 -15 -316 -20 -128 -19 -246
-71 -306 -135 l-23 -25 -40 36 c-59 54 -168 101 -272 118 -49 8 -204 20 -343
26 -279 11 -314 19 -369 84 -54 64 -53 53 -53 650 l0 554 69 -24 c147 -51 352
-52 589 -3 53 11 140 27 192 35 52 8 98 18 102 22 3 4 10 24 13 44 l7 38 -48
-6 c-27 -4 -130 -22 -229 -41 -304 -59 -495 -55 -640 11 l-54 24 -4 454 c-2
257 -8 468 -14 488 -5 19 -13 45 -17 58 l-7 22 1109 0 c610 0 1111 -2 1114 -6z"/>
<path d="M2086 2800 c-3 -8 -15 -41 -26 -72 l-21 -57 -76 -3 -76 -3 61 -47 60
-48 -20 -66 c-11 -36 -18 -68 -16 -70 2 -2 30 14 62 36 l59 39 61 -39 c33 -21
62 -38 63 -36 1 1 -7 33 -18 70 -11 37 -19 69 -17 70 2 1 29 23 61 49 l58 46
-78 3 -77 3 -27 70 c-16 42 -29 64 -33 55z"/>
<path d="M1885 2216 c-25 -25 -34 -77 -17 -102 13 -20 50 -34 91 -34 77 0 108
-84 72 -200 -10 -36 -22 -79 -26 -97 -8 -42 16 -136 56 -215 l31 -62 19 34
c32 60 59 160 59 219 0 42 -7 69 -27 106 -36 68 -36 130 0 182 41 60 36 113
-15 139 -35 18 -61 11 -106 -27 -34 -30 -68 -43 -99 -37 -13 2 -18 12 -18 38
0 33 2 36 43 44 51 12 50 30 -1 34 -28 2 -42 -3 -62 -22z"/>
<path d="M1570 1208 c0 -21 -4 -23 -63 -24 -46 0 -74 -7 -107 -25 -25 -13 -65
-26 -90 -29 -32 -4 -46 -10 -48 -22 -3 -15 4 -18 32 -18 29 0 36 -4 36 -20 0
-12 -12 -26 -30 -35 -34 -18 -38 -43 -14 -80 16 -25 91 -85 106 -85 4 0 8 18
8 41 l0 41 46 -41 c26 -23 51 -41 55 -41 5 0 9 18 9 40 0 22 2 40 5 40 3 0 22
-15 41 -32 38 -35 64 -52 68 -46 2 1 6 33 9 70 4 60 3 68 -14 73 -11 4 -19 15
-19 26 0 10 -4 19 -10 19 -5 0 -10 7 -10 15 0 11 12 15 51 15 43 0 50 3 47 18
-2 11 -14 18 -36 20 -28 3 -32 7 -32 32 0 29 1 29 63 32 47 2 62 7 62 18 0 12
-17 16 -82 18 -81 3 -83 2 -83 -20z m0 -58 c0 -19 -7 -20 -90 -20 -49 0 -90 2
-90 5 0 15 71 34 123 35 50 0 57 -2 57 -20z m-122 -80 c1 -8 -12 -23 -29 -32
-40 -23 -49 -23 -49 2 0 11 -4 20 -10 20 -5 0 -10 7 -10 16 0 21 94 16 98 -6z
m112 1 c0 -22 -46 -55 -66 -47 -8 3 -14 12 -14 21 0 8 -4 15 -10 15 -5 0 -10
7 -10 15 0 11 12 15 50 15 42 0 50 -3 50 -19z m-170 -96 c0 -8 -4 -17 -10 -20
-6 -4 -10 5 -10 20 0 15 4 24 10 20 6 -3 10 -12 10 -20z m110 -7 c0 -36 -4
-35 -14 5 -4 16 -2 27 4 27 5 0 10 -14 10 -32z m120 7 c0 -14 -4 -25 -10 -25
-5 0 -10 11 -10 25 0 14 5 25 10 25 6 0 10 -11 10 -25z"/>
<path d="M2060 1217 c0 -7 -6 -21 -13 -31 -11 -15 -17 -16 -40 -5 -24 11 -30
10 -44 -4 -14 -14 -15 -21 -4 -43 14 -31 1 -54 -30 -54 -14 0 -19 -7 -19 -29
0 -24 6 -31 31 -40 24 -8 30 -15 24 -28 -16 -39 -16 -50 0 -63 12 -10 21 -10
40 -2 19 9 27 8 40 -4 8 -9 15 -22 15 -30 0 -9 11 -14 30 -14 19 0 30 5 30 14
0 8 7 21 15 30 13 12 21 13 40 4 19 -8 28 -8 40 2 16 13 16 24 0 63 -6 13 0
20 24 28 25 9 31 16 31 40 0 22 -5 29 -19 29 -31 0 -44 23 -30 54 11 22 10 29
-4 43 -14 14 -20 15 -44 4 -23 -11 -29 -10 -40 5 -7 10 -13 24 -13 31 0 8 -12
13 -30 13 -18 0 -30 -5 -30 -13z m95 -83 c35 -23 52 -83 35 -125 -15 -35 -63
-69 -98 -69 -62 0 -120 70 -107 129 6 28 46 73 75 84 22 9 66 0 95 -19z"/>
<path d="M2030 1103 c0 -4 10 -17 22 -30 l21 -23 -23 -25 c-31 -32 -17 -46 15
-15 l25 23 25 -23 c32 -31 46 -17 15 15 l-23 25 23 25 c31 32 17 46 -15 15
l-25 -23 -23 21 c-24 22 -37 28 -37 15z"/>
<path d="M2760 1135 l-95 -96 28 -22 c15 -13 27 -30 27 -39 0 -22 55 -33 93
-19 42 16 32 24 -20 17 -56 -7 -31 9 28 19 21 3 42 12 49 20 16 20 1 20 -64 0
-74 -23 -67 -10 8 15 56 18 86 41 86 64 0 3 -35 -11 -77 -30 -80 -35 -74 -21
9 22 42 21 69 57 54 71 -3 3 -35 -18 -71 -47 -37 -28 -69 -50 -71 -47 -3 3 20
24 51 48 54 42 71 70 63 104 -2 11 -32 -14 -98 -80z"/>
<path d="M2584 1106 c-34 -15 -74 -60 -74 -83 0 -15 3 -15 67 3 26 7 60 -24
68 -63 10 -46 19 -56 71 -74 65 -23 91 -23 104 0 20 38 13 46 -39 43 -55 -4
-96 12 -87 34 3 8 -5 24 -19 36 -32 27 -32 48 0 78 14 13 25 27 25 32 0 13
-82 9 -116 -6z"/>
<path d="M3645 3051 c-13 -62 24 -167 70 -197 33 -21 45 -11 45 39 -1 53 -20
107 -54 152 -33 43 -52 45 -61 6z"/>
<path d="M3886 3020 c-52 -46 -83 -121 -77 -187 3 -40 84 19 112 82 20 43 25
120 10 130 -6 3 -26 -8 -45 -25z"/>
<path d="M420 3001 c-50 -71 -62 -139 -35 -191 20 -38 26 -38 50 2 44 73 54
128 34 187 -14 39 -22 39 -49 2z"/>
<path d="M245 2850 c-4 -12 -7 -49 -7 -81 0 -62 15 -99 56 -131 38 -31 46 -23
46 47 0 72 -20 123 -63 163 l-25 24 -7 -22z"/>
<path d="M3600 2837 c0 -70 63 -170 116 -183 34 -9 43 2 35 38 -14 59 -45 108
-95 146 -37 28 -56 28 -56 -1z"/>
<path d="M3934 2828 c-39 -35 -84 -117 -84 -155 0 -38 43 -30 90 17 27 27 44
57 55 94 25 84 3 100 -61 44z"/>
<path d="M567 2820 c-47 -14 -96 -58 -122 -111 l-25 -49 44 0 c66 0 120 51
156 145 11 28 0 31 -53 15z"/>
<path d="M3773 2785 c3 -22 13 -83 24 -135 14 -76 18 -141 17 -325 -1 -207 -3
-244 -27 -368 -71 -362 -238 -715 -454 -960 -26 -29 -33 -46 -33 -79 l0 -42
31 30 c49 46 173 215 233 316 254 433 343 994 240 1508 -17 82 -40 124 -31 55z"/>
<path d="M386 2733 c-38 -123 -57 -468 -36 -655 28 -265 93 -491 211 -734 65
-136 190 -327 274 -419 l54 -60 1 42 c0 38 -8 52 -67 125 -225 279 -379 634
-439 1013 -26 163 -23 466 5 599 24 114 24 106 12 106 -5 0 -12 -8 -15 -17z"/>
<path d="M3603 2634 c-13 -35 59 -143 112 -168 67 -32 83 -10 45 63 -35 69
-143 141 -157 105z"/>
<path d="M3991 2628 c-63 -31 -139 -144 -113 -170 17 -17 78 9 113 50 52 59
82 142 51 142 -4 0 -27 -10 -51 -22z"/>
<path d="M185 2605 c-14 -13 -25 -31 -25 -40 0 -22 45 -65 68 -65 23 0 62 40
62 64 0 21 -44 66 -65 66 -9 0 -27 -11 -40 -25z"/>
<path d="M404 2564 c-23 -34 -9 -75 29 -88 33 -12 55 -1 76 36 36 62 -66 112
-105 52z"/>
<path d="M547 2502 c-21 -23 -22 -66 -1 -86 36 -37 104 -7 104 46 0 51 -69 78
-103 40z"/>
<path d="M222 2478 c-46 -22 -37 -101 13 -114 39 -10 75 19 75 60 0 49 -43 75
-88 54z"/>
<path d="M3641 2375 c-3 -197 -48 -360 -167 -597 -42 -84 -99 -204 -125 -266
l-49 -114 1 -176 0 -177 31 100 c16 55 40 136 53 180 27 96 144 442 157 469
11 20 54 134 69 181 35 110 56 334 40 435 -8 54 -9 53 -10 -35z"/>
<path d="M3587 2437 c-3 -7 1 -24 9 -38 13 -24 13 -23 14 14 0 36 -13 50 -23
24z"/>
<path d="M4022 2437 c-44 -14 -118 -80 -130 -116 -17 -50 8 -54 85 -16 54 27
103 86 103 123 0 24 -8 25 -58 9z"/>
<path d="M410 2420 c-24 -24 -25 -48 -4 -78 32 -46 114 -17 114 40 0 26 -36
58 -65 58 -14 0 -34 -9 -45 -20z"/>
<path d="M3683 2384 c4 -22 7 -49 7 -61 0 -20 40 -43 76 -43 41 0 -13 102 -69
132 -19 10 -20 8 -14 -28z"/>
<path d="M130 2342 c0 -67 28 -141 73 -189 35 -38 83 -73 102 -73 3 0 5 23 5
50 0 57 -18 108 -56 158 -26 33 -99 92 -116 92 -4 0 -8 -17 -8 -38z"/>
<path d="M515 2302 c-52 -38 -71 -60 -90 -105 -16 -39 -21 -137 -7 -137 5 0
28 14 51 31 57 41 93 118 89 189 l-3 52 -40 -30z"/>
<path d="M3564 2246 c-7 -18 14 -58 27 -51 16 10 11 65 -6 65 -9 0 -18 -6 -21
-14z"/>
<path d="M4024 2241 c-47 -12 -86 -39 -117 -82 -33 -46 -29 -59 19 -59 50 0
110 34 140 80 39 59 27 77 -42 61z"/>
<path d="M3678 2170 c-2 -35 1 -51 10 -55 19 -7 67 -6 75 1 14 14 -49 104 -72
104 -5 0 -11 -22 -13 -50z"/>
<path d="M82 2070 c-18 -4 -36 -11 -39 -14 -4 -3 17 -28 45 -56 61 -59 134
-85 207 -75 41 7 45 10 45 35 0 36 -60 86 -127 106 -50 15 -80 16 -131 4z"/>
<path d="M546 2066 c-40 -15 -107 -64 -113 -83 -6 -16 72 -43 125 -43 54 0
132 34 176 76 l29 27 -29 15 c-40 21 -141 25 -188 8z"/>
<path d="M3537 2057 c-3 -8 -2 -19 3 -26 5 -10 9 -8 14 4 3 9 6 21 6 26 0 14
-17 11 -23 -4z"/>
<path d="M3960 2024 c-42 -18 -77 -50 -96 -87 -13 -24 -13 -28 1 -33 27 -11
95 3 129 27 39 27 80 84 71 98 -9 16 -64 13 -105 -5z"/>
<path d="M3656 2018 c-2 -7 -9 -28 -15 -47 -13 -40 -7 -47 47 -57 53 -10 60 8
26 62 -30 50 -51 65 -58 42z"/>
<path d="M484 1854 c-35 -53 21 -113 80 -86 58 26 36 112 -29 112 -26 0 -39
-6 -51 -26z"/>
<path d="M270 1857 c-36 -18 -41 -78 -8 -101 30 -21 54 -20 78 4 51 51 -5 129
-70 97z"/>
<path d="M3593 1843 c-3 -10 -12 -33 -19 -51 -13 -32 -12 -33 19 -52 32 -20
97 -27 97 -11 0 32 -61 131 -81 131 -5 0 -12 -8 -16 -17z"/>
<path d="M630 1790 c-27 -27 -25 -56 5 -86 29 -29 58 -26 88 8 22 26 22 40 -4
72 -25 31 -61 34 -89 6z"/>
<path d="M3890 1781 c-47 -26 -84 -66 -77 -85 5 -11 20 -16 52 -16 58 0 102
18 143 60 26 25 30 35 21 46 -16 20 -97 17 -139 -5z"/>
<path d="M146 1734 c-22 -21 -20 -67 2 -87 40 -36 102 -9 102 45 0 49 -69 78
-104 42z"/>
<path d="M507 1715 c-14 -14 -14 -19 0 -61 14 -42 18 -45 46 -42 22 2 36 11
47 31 13 24 13 30 0 55 -19 32 -69 42 -93 17z"/>
<path d="M291 1683 c-34 -42 -10 -93 44 -93 58 0 85 60 45 100 -28 28 -64 25
-89 -7z"/>
<path d="M3521 1649 c-7 -23 -15 -47 -17 -54 -7 -17 63 -65 93 -65 28 0 30 24
8 78 -16 36 -52 82 -65 82 -4 0 -12 -18 -19 -41z"/>
<path d="M817 1668 c-83 -17 -174 -83 -208 -149 -26 -53 -25 -79 4 -79 39 0
144 59 177 98 33 41 74 117 68 130 -1 5 -20 5 -41 0z"/>
<path d="M3787 1540 c-55 -35 -59 -54 -16 -69 49 -17 80 -13 137 15 95 47 86
84 -20 84 -43 0 -64 -6 -101 -30z"/>
<path d="M230 1555 c0 -18 31 -73 51 -92 40 -36 103 -63 152 -65 25 -1 49 0
52 4 10 9 -21 64 -52 93 -15 14 -48 31 -73 39 -52 16 -130 29 -130 21z"/>
<path d="M3476 1510 c-34 -91 -35 -98 -18 -113 44 -38 92 -48 92 -19 0 59 -61
167 -74 132z"/>
<path d="M669 1419 c-29 -29 -23 -79 14 -99 24 -13 30 -13 55 0 52 30 31 120
-28 120 -11 0 -29 -9 -41 -21z"/>
<path d="M265 1390 c-51 -25 -117 -79 -110 -90 3 -5 34 -12 69 -15 80 -9 164
13 201 52 l25 27 -58 17 c-31 9 -64 19 -72 23 -8 3 -33 -3 -55 -14z"/>
<path d="M3740 1384 c-35 -15 -80 -51 -80 -65 0 -10 58 -29 91 -29 44 0 107
29 129 60 l20 28 -32 11 c-42 15 -86 13 -128 -5z"/>
<path d="M3879 1313 c-158 -192 -326 -347 -495 -460 -66 -44 -83 -61 -88 -85
-3 -17 -4 -33 -2 -35 2 -2 62 42 132 99 202 161 378 344 494 513 17 25 29 45
27 45 -2 0 -33 -35 -68 -77z"/>
<path d="M452 1338 c-18 -18 -14 -73 6 -91 25 -23 58 -21 82 3 24 24 25 32 5
70 -12 24 -22 30 -48 30 -18 0 -38 -5 -45 -12z"/>
<path d="M3413 1310 c-24 -59 -25 -88 -4 -99 11 -6 24 -11 30 -11 15 0 13 69
-3 105 l-14 30 -9 -25z"/>
<path d="M744 1290 c-11 -4 -26 -15 -33 -24 -12 -14 -10 -22 13 -56 29 -44 54
-50 81 -20 45 49 0 122 -61 100z"/>
<path d="M867 1233 c-10 -29 -18 -80 -18 -117 0 -43 6 -75 18 -98 l18 -33 3
78 c2 43 2 110 0 150 l-3 72 -18 -52z"/>
<path d="M350 1220 c-11 -11 -20 -31 -20 -45 0 -29 32 -65 58 -65 57 0 86 82
40 114 -30 21 -54 20 -78 -4z"/>
<path d="M507 1192 c-37 -41 -11 -102 43 -102 36 0 60 23 60 59 0 54 -68 82
-103 43z"/>
<path d="M3619 1177 c-54 -29 -59 -57 -12 -70 34 -10 63 6 112 65 l23 28 -40
0 c-21 0 -58 -10 -83 -23z"/>
<path d="M3351 1103 c0 -6 -4 -20 -7 -30 -5 -14 -4 -15 5 -7 7 7 11 20 8 30
-3 11 -5 14 -6 7z"/>
<path d="M570 1051 c-34 -11 -107 -49 -114 -59 -9 -15 127 -72 170 -72 38 0
116 29 127 47 3 5 -4 24 -16 41 -31 45 -101 63 -167 43z"/>
<path d="M3478 984 c-16 -8 -28 -21 -28 -29 0 -21 10 -18 50 15 37 31 24 40
-22 14z"/>
<path d="M3616 945 c-37 -33 -38 -35 -15 -35 31 0 92 37 86 53 -7 23 -32 16
-71 -18z"/>
<path d="M735 911 c-51 -23 -100 -73 -131 -134 l-25 -48 48 6 c103 14 156 42
199 105 l24 34 -27 28 c-31 33 -35 33 -88 9z"/>
<path d="M1545 419 c28 -18 131 -74 230 -125 l180 -93 47 21 47 20 -199 99
c-188 94 -203 99 -277 105 l-78 6 50 -33z"/>
<path d="M2545 441 c-16 -5 -104 -45 -195 -91 -281 -141 -534 -240 -723 -282
-97 -22 -107 -26 -91 -39 24 -20 162 -17 249 5 182 47 538 206 820 365 l90 51
-60 -1 c-33 -1 -73 -4 -90 -8z"/>
<path d="M2180 149 c-54 -24 -52 -26 90 -74 202 -67 311 -81 373 -48 l32 17
-94 18 c-52 10 -146 36 -210 58 -64 21 -123 41 -131 44 -8 2 -35 -4 -60 -15z"/>
</g>
</svg>
